<?xml version="1.0" standalone="no"?>
<!DOCTYPE svg PUBLIC "-//W3C//DTD SVG 20010904//EN"
 "http://www.w3.org/TR/2001/REC-SVG-20010904/DTD/svg10.dtd">
<svg version="1.0" xmlns="http://www.w3.org/2000/svg"
 width="512.000000pt" height="512.000000pt" viewBox="0 0 512.000000 512.000000"
 preserveAspectRatio="xMidYMid meet">

<g transform="translate(0.000000,512.000000) scale(0.100000,-0.100000)"
fill="#000000" stroke="none">
<path d="M1371 4254 c-20 -25 -21 -40 -21 -224 0 -184 1 -199 21 -224 l20 -26
1164 0 1164 0 20 26 c20 25 21 39 21 229 0 198 0 202 -23 223 l-23 22 -1161 0
-1162 0 -20 -26z"/>
<path d="M1375 2895 c-24 -23 -25 -30 -25 -142 1 -127 6 -144 54 -163 39 -15
1402 -14 1445 1 17 6 36 19 41 29 6 10 10 71 10 135 0 110 -1 117 -25 140
l-24 25 -726 0 -726 0 -24 -25z"/>
<path d="M3203 2896 l-28 -24 -3 -749 c-1 -411 0 -758 3 -771 3 -12 14 -31 25
-42 19 -19 36 -20 544 -20 l525 0 20 26 c21 26 21 33 21 791 l0 764 -25 24
-24 25 -515 0 -515 0 -28 -24z"/>
</g>
</svg>
